<svg xmlns="http://www.w3.org/2000/svg" viewBox="0 0 100 100" width="512" height="512"><path fill="#1D2D50" fill-rule="evenodd" d="M50 4C67.7 4 81.5 17.8 81.5 35.5C81.5 48.3 73.6 57.2 65.1 66.2C59.6 72 54.6 78.3 51.9 85.1C51.2 86.8 48.8 86.8 48.1 85.1C45.4 78.3 40.4 72 34.9 66.2C26.4 57.2 18.5 48.3 18.5 35.5C18.5 17.8 32.3 4 50 4Z M38.5 51.5L38.5 36C38.5 29.6 43.6 24.5 50 24.5C56.4 24.5 61.5 29.6 61.5 36L61.5 51.5C61.5 53.2 60.2 54.5 58.5 54.5L41.5 54.5C39.8 54.5 38.5 53.2 38.5 51.5Z"></path>
  <path fill="#1D2D50" d="M25.4 90.9C32.8 88.5 46.2 87.5 58.2 88.1C66.4 88.5 73.9 89.5 75 91.1C76.1 92.8 71.3 94.3 61.6 95C49.6 95.9 35.6 95.7 28.2 94.4C24.3 93.7 23 91.7 25.4 90.9Z"></path></svg>