<svg width="512" height="512" viewBox="0 0 512 512" version="1.1" xmlns="http://www.w3.org/2000/svg" xmlns:xlink="http://www.w3.org/1999/xlink">
	<defs>
		<rect id="tile" x="0" y="0" width="512" height="512" rx="114"/>
	</defs>
	<mask id="clip" fill="white">
		<use xlink:href="#tile"/>
	</mask>
	<use fill="#FFF" xlink:href="#tile"/>
	<g mask="url(#clip)">
		<rect fill="#BEB99E" x="0" y="0" width="173" height="512"/>
		<rect fill="#E4DDC9" x="0" y="0" width="170" height="512"/>
		<rect fill="#88AD58" x="337" y="0" width="175" height="173"/>
		<rect fill="#76C63B" x="340" y="0" width="172" height="170"/>
		<rect fill="#CAADA2" x="337" y="339" width="175" height="173"/>
		<rect fill="#FBC6D1" x="340" y="342" width="172" height="170"/>
		<path d="M256,384 C327.692448,384 384,327.692448 384,256 C384,184.307552 327.692448,128 256,128 C184.307552,128 128,184.307552 128,256 C128,327.692448 184.307552,384 256,384 Z" fill="#007AFF"/>
		<polygon fill="#FFF" points="256 171.5 203.5 341 256 282 308.5 341"/>
	</g>
</svg>
